<svg width="32" height="44" viewBox="0 0 32 44" fill="none" xmlns="http://www.w3.org/2000/svg">
<g clip-path="url(#clip0_85490_17323)">
<path d="M29.6656 31.7082C26.8423 34.2393 24.019 36.7704 21.1957 39.3021C20.3876 40.0264 19.58 40.7513 18.7719 41.4756L19.9006 42.825C23.1042 39.9518 26.3078 37.078 29.5114 34.2048C30.3412 33.4607 31.1703 32.7167 32 31.9726C31.2492 31.0739 30.499 30.1757 29.7475 29.2776L28.5393 30.3607L29.6656 31.7082Z" fill="#444EFE"/>
<path d="M5.70467 19.4511L6.83213 20.7986L8.95329 19.5879L7.82398 18.2373L5.70467 19.4511Z" fill="#4C67FF"/>
<path d="M1.36927 9.20207C3.62296 11.8978 5.87727 14.5934 8.13035 17.2897L10.2521 16.0735C7.99596 13.3729 5.73796 10.6729 3.48118 7.9729L1.36927 9.20207Z" fill="#4C67FF"/>
<path d="M3.48118 7.97306C5.73796 10.6731 7.99596 13.373 10.2521 16.0737C9.44274 16.7949 8.63336 17.5161 7.82398 18.2373L8.95329 19.5873C9.76205 18.8661 10.5714 18.1443 11.3802 17.423L14.7638 21.4712L15.9763 20.3893C13.0261 16.8615 10.0777 13.3324 7.12864 9.80388C6.31741 8.83361 5.50679 7.86334 4.69556 6.89307L3.48118 7.97306Z" fill="#444EFE"/>
<path d="M8.33685 3.65479L7.1237 4.73355C10.6257 8.92408 14.127 13.114 17.629 17.3045C18.6369 18.5109 19.6454 19.7173 20.6532 20.9236L21.8633 19.8424C18.3465 15.6334 14.8285 11.4256 11.3124 7.21594C10.3212 6.02868 9.32931 4.84204 8.33685 3.6554V3.65479Z" fill="#444EFE"/>
<path d="M0.590714 31.0759C3.2229 34.224 5.85631 37.3709 8.48911 40.5185C9.24117 41.4172 9.99322 42.316 10.7447 43.2154L12.8738 42.0386C10.2373 38.8868 7.60144 35.7349 4.96495 32.5825C4.21166 31.6812 3.45776 30.7806 2.70447 29.8794L0.590714 31.0759Z" fill="#4C67FF"/>
<path d="M2.70448 29.8794C5.34036 33.0324 7.97809 36.1843 10.6146 39.3373C11.3673 40.238 12.1205 41.138 12.8738 42.0386L14.0882 40.9512C11.4523 37.8 8.81645 34.6487 6.18118 31.4969C5.4279 30.5963 4.67461 29.695 3.92133 28.7944L2.7051 29.88L2.70448 29.8794Z" fill="#444EFE"/>
<path d="M3.1927 24.0446L4.32016 25.3928L6.43823 24.1883L5.30892 22.8376L3.1927 24.0446Z" fill="#4C67FF"/>
<path d="M6.52392 21.7533L5.30892 22.8376L6.43823 24.1882L8.86822 22.0202C9.62028 22.9208 10.3729 23.8208 11.1256 24.7208L12.3388 23.6371C11.2107 22.2872 10.082 20.9372 8.95329 19.5872C8.1433 20.309 7.33391 21.0309 6.52392 21.7533Z" fill="#444EFE"/>
<path d="M0.677629 28.6422L1.80571 29.9916L3.9207 28.7932L2.79077 27.4426L0.677629 28.6422Z" fill="#4C67FF"/>
<path d="M4.00701 26.3569L2.79078 27.4418L3.9207 28.793C4.73132 28.0699 5.54193 27.3462 6.35193 26.6232L7.48124 27.9738L8.69685 26.8895C7.94357 25.9895 7.1909 25.0888 6.43761 24.1882C5.627 24.9113 4.817 25.6344 4.00639 26.3569H4.00701Z" fill="#444EFE"/>
<path d="M21.0163 17.5462L22.1407 18.8925L24.2822 17.6799L23.156 16.3318L21.0163 17.5462Z" fill="#4C67FF"/>
<path d="M24.3654 15.252L23.1566 16.332L24.2828 17.6801C25.0891 16.9601 25.8948 16.2401 26.7005 15.5201L25.5749 14.1726L24.3654 15.252Z" fill="#444EFE"/>
<path d="M1.45558 6.77535L2.58243 8.1235L4.69557 6.89248L3.56749 5.54248L1.45558 6.77535Z" fill="#4C67FF"/>
<path d="M2.6681 5.69776L1.45496 6.77591C2.23167 6.32221 3.08605 5.92523 3.77954 5.35379C4.5396 4.72749 5.25899 4.03832 5.99501 3.38428C4.76707 4.10181 3.72714 4.75585 2.66749 5.69776H2.6681Z" fill="#2E40DB"/>
<path d="M4.78188 4.46305L3.5675 5.54243L4.69619 6.89243C5.50557 6.17243 6.31495 5.45305 7.12372 4.73305L5.99564 3.38306L4.78188 4.46244V4.46305Z" fill="#444EFE"/>
<path d="M23.0728 18.7612L21.8633 19.8424L22.9902 21.1905C23.7965 20.4699 24.6028 19.7493 25.4091 19.0287L24.2828 17.6812L23.0734 18.7618L23.0728 18.7612Z" fill="#444EFE"/>
<path d="M30.3221 12.2832L29.1971 10.9363L27.9895 12.015C28.7397 12.9132 29.4899 13.8113 30.2401 14.7095L31.4471 13.6307L30.3221 12.2838V12.2832Z" fill="#444EFE"/>
<path d="M22.3072 14.0449L23.4315 15.3899L25.5737 14.1725L24.448 12.825L22.3072 14.0449Z" fill="#4C67FF"/>
<path d="M25.6563 11.7461L24.448 12.8249L25.5737 14.1724C26.3787 13.453 27.1838 12.7336 27.9895 12.0149L26.8645 10.668L25.6569 11.7467L25.6563 11.7461Z" fill="#444EFE"/>
<path d="M28.7045 25.5001L29.8301 26.8476L31.0384 25.7657L29.9121 24.4182L28.7045 25.5001Z" fill="#444EFE"/>
<path d="M28.9505 18.215L30.0761 19.5619L31.2831 18.4819L30.1581 17.135L28.9505 18.215Z" fill="#444EFE"/>
<path d="M28.7865 23.0708L29.9121 24.4184L31.1191 23.3371L29.9941 21.9902L28.7865 23.0708Z" fill="#444EFE"/>
<path d="M29.0325 15.7881L30.1581 17.135L31.3645 16.0557L30.2395 14.7087L29.0325 15.7881Z" fill="#444EFE"/>
<path d="M28.8685 20.6425L29.9941 21.99L31.2011 20.9088L30.0755 19.5625L28.8685 20.6425Z" fill="#444EFE"/>
<path d="M15.3026 39.8625L14.0882 40.9499L15.2181 42.3006L16.4319 41.2132L15.3026 39.8625Z" fill="#444EFE"/>
<path d="M28.6219 27.9301L29.7482 29.2776L30.9557 28.1952L29.8295 26.8477L28.6219 27.9301Z" fill="#444EFE"/>
<path d="M17.6438 40.1262L16.4307 41.213L17.5594 42.563L18.7725 41.4756L17.6438 40.1262Z" fill="#444EFE"/>
<path d="M12.5151 5.99986C13.2683 6.8826 14.0222 7.76533 14.7755 8.64745L16.3641 8.44403C15.6096 7.56006 14.8544 6.67609 14.0999 5.7915C13.5716 5.86054 13.0433 5.92959 12.5151 5.99924V5.99986Z" fill="#4C67FF"/>
<path d="M13.7855 4.84264L12.5151 5.9997L14.0999 5.79196L15.3723 4.63306C14.8434 4.70271 14.3144 4.77237 13.7849 4.84264H13.7855Z" fill="#2E40DB"/>
<path d="M15.3729 4.63306L14.1005 5.79196C14.8551 6.67593 15.6102 7.5599 16.3647 8.44448L17.6364 7.28558C16.8819 6.40161 16.1274 5.51764 15.3729 4.63367V4.63306Z" fill="#444EFE"/>
<path d="M23.9678 5.51085L21.4306 7.82372L23.0284 7.61906L25.5693 5.30249C25.0355 5.37215 24.5017 5.44119 23.9678 5.51085Z" fill="#2E40DB"/>
<path d="M21.43 7.8238L22.5593 9.14667L24.1589 8.94448L23.0284 7.61914L21.4306 7.8238H21.43Z" fill="#4C67FF"/>
<path d="M23.0284 7.61906L24.1589 8.9444C25.0059 8.172 25.8529 7.40022 26.6999 6.62783L25.5693 5.30249L23.0284 7.61906Z" fill="#444EFE"/>
<path d="M19.4512 0.216986L18.182 1.3728L19.7748 1.15767L21.0459 0C20.5146 0.0721231 19.9826 0.144863 19.4512 0.216986Z" fill="#2E40DB"/>
<path d="M18.182 1.37272L19.3113 2.69683L20.906 2.48416L19.7748 1.1582C19.2441 1.22971 18.7127 1.30183 18.182 1.37334V1.37272Z" fill="#4C67FF"/>
<path d="M19.7748 1.15767L20.906 2.48424L22.1771 1.32595L21.0459 0L19.7748 1.15767Z" fill="#444EFE"/>
<path d="M17.9021 6.33383L19.0314 7.65732L20.6255 7.45266L19.4944 6.12671C18.9636 6.19575 18.4329 6.26479 17.9021 6.33383Z" fill="#4C67FF"/>
<path d="M19.1713 5.17675L17.9021 6.33318L19.4944 6.12606L20.7661 4.96777C20.2347 5.03743 19.7033 5.10709 19.1713 5.17675Z" fill="#2E40DB"/>
<path d="M21.8972 6.29373L20.7661 4.96777L19.495 6.12667L20.6261 7.45263L21.8972 6.29373Z" fill="#444EFE"/>
<path d="M19.3113 2.6968L18.042 3.85324L19.6349 3.64241L20.906 2.48413C20.3746 2.55502 19.8426 2.62591 19.3113 2.6968Z" fill="#2E40DB"/>
<path d="M18.042 3.85328L19.1713 5.17677L20.7661 4.9678L19.6349 3.64185C19.1042 3.71212 18.5728 3.78239 18.042 3.85267V3.85328Z" fill="#4C67FF"/>
<path d="M19.6349 3.6418L20.7661 4.96775L22.0372 3.80947L20.906 2.48413L19.6349 3.6418Z" fill="#444EFE"/>
<path d="M3.88064 4.6195L1.45558 6.77518L3.56749 5.54231L5.99564 3.38354L3.88064 4.6195Z" fill="#2E40DB"/>
<path d="M4.69557 6.89233L2.58243 8.12336L1.36928 9.20212L3.48119 7.97295L4.69557 6.89233Z" fill="#2E40DB"/>
<path d="M10.2521 16.0735L8.12973 17.2897L5.70467 19.4509L7.82398 18.2372L10.2521 16.0735Z" fill="#2E40DB"/>
<path d="M8.95329 19.5879L6.83213 20.7986L3.19269 24.0447L5.30892 22.8377L8.95329 19.5879Z" fill="#2E40DB"/>
<path d="M6.43823 24.1882L4.32016 25.3927L0.677635 28.642L2.79078 27.4714L6.43823 24.1882Z" fill="#2E40DB"/>
<path d="M3.9207 28.7932L1.80571 29.9916L0.590711 31.0759L2.70447 29.8794L3.9207 28.7932Z" fill="#2E40DB"/>
<path d="M14.0882 40.95L12.8738 42.038L12.2093 42.43L13.0853 43.4773L15.2181 42.3006L14.0882 40.95Z" fill="#4C67FF"/>
<path d="M16.4307 41.2131L15.2181 42.3005L14.5364 42.6766L15.4246 43.7387L17.5594 42.5631L16.4307 41.2131Z" fill="#4C67FF"/>
<path d="M18.7725 41.4756L17.5594 42.563L16.8751 42.9396L17.7622 43.9999L19.9006 42.825L18.7725 41.4756Z" fill="#4C67FF"/>
<path d="M24.2822 17.6807L22.1413 18.8926L21.536 19.4511L21.8633 19.8419L24.2822 17.6807Z" fill="#2E40DB"/>
<path d="M21.0163 17.5464L23.156 16.332L25.5737 14.1726L23.4315 15.3901L21.0163 17.5464Z" fill="#2E40DB"/>
<path d="M22.3072 14.0448L24.448 12.8249L26.8645 10.668L24.7205 11.8904L22.3072 14.0448Z" fill="#2E40DB"/>
<path d="M29.1971 10.9363L27.7676 11.7494L27.9895 12.015L29.1971 10.9363Z" fill="#2E40DB"/>
<path d="M30.2395 14.7088L27.9895 12.015L25.5736 14.1725L26.6999 15.52L24.2822 17.6807L25.4084 19.0282L22.9895 21.19L21.8633 19.8419L20.6533 20.9237L7.12371 4.73364L4.69557 6.8924L15.9764 20.3893L14.7638 21.4717L11.3802 17.4236L8.95329 19.5879L12.3388 23.6379L11.125 24.721L8.86761 22.0204L6.43823 24.1884L8.69686 26.8896L7.48186 27.9739L6.35193 26.6233L3.92071 28.7932L14.0882 40.9499L15.3026 39.8625L16.4307 41.2131L17.6438 40.1263L18.7725 41.4757L29.6656 31.7083L28.5393 30.3608L29.7482 29.2777L28.6219 27.9301L29.8295 26.8477L28.7045 25.5002L29.9121 24.4183L28.7865 23.0708L29.9941 21.9902L28.8685 20.6426L30.0755 19.5626L28.9505 18.2151L30.1581 17.1351L29.0325 15.7882L30.2395 14.7088Z" fill="white"/>
</g>
<defs>
<clipPath id="clip0_85490_17323">
<rect width="31.4093" height="44" fill="white" transform="matrix(-1 0 0 1 32 0)"/>
</clipPath>
</defs>
</svg>
